<mxfile host="Electron" agent="Mozilla/5.0 (X11; Linux x86_64) AppleWebKit/537.36 (KHTML, like Gecko) draw.io/26.1.1 Chrome/132.0.6834.210 Electron/34.3.3 Safari/537.36" version="26.1.1">
  <diagram name="Page-1" id="pBSTw97CqDQas70XfuDZ">
    <mxGraphModel dx="482" dy="274" grid="1" gridSize="10" guides="1" tooltips="1" connect="1" arrows="1" fold="1" page="1" pageScale="1" pageWidth="850" pageHeight="1100" math="1" shadow="0">
      <root>
        <mxCell id="0" />
        <mxCell id="1" parent="0" />
        <mxCell id="hzOQPEmYSjEI6YSX7xpc-3" value="" style="endArrow=none;startArrow=classicThin;html=1;rounded=0;startFill=1;endFill=1;fillColor=#d5e8d4;strokeColor=#82b366;fontFamily=Times New Roman;" edge="1" parent="1">
          <mxGeometry width="50" height="50" relative="1" as="geometry">
            <mxPoint x="220" y="260" as="sourcePoint" />
            <mxPoint x="199.9339933993399" y="229.73844827586205" as="targetPoint" />
          </mxGeometry>
        </mxCell>
        <mxCell id="hzOQPEmYSjEI6YSX7xpc-4" value="" style="endArrow=classic;startArrow=classic;html=1;rounded=0;fontFamily=Times New Roman;" edge="1" parent="1">
          <mxGeometry width="50" height="50" relative="1" as="geometry">
            <mxPoint x="200" y="289.94" as="sourcePoint" />
            <mxPoint x="200" y="159.94" as="targetPoint" />
          </mxGeometry>
        </mxCell>
        <mxCell id="hzOQPEmYSjEI6YSX7xpc-5" value="" style="endArrow=classic;startArrow=classic;html=1;rounded=0;fontFamily=Times New Roman;" edge="1" parent="1">
          <mxGeometry width="50" height="50" relative="1" as="geometry">
            <mxPoint x="140" y="230" as="sourcePoint" />
            <mxPoint x="271" y="229.94" as="targetPoint" />
          </mxGeometry>
        </mxCell>
        <mxCell id="hzOQPEmYSjEI6YSX7xpc-6" value="\(\ket{0}\)" style="whiteSpace=wrap;html=1;strokeWidth=0;fontSize=10;fillColor=none;strokeColor=none;fontFamily=Times New Roman;" vertex="1" parent="1">
          <mxGeometry x="142.86036303630362" y="269.9961206896552" width="16.864686468646866" height="16.86465517241379" as="geometry" />
        </mxCell>
        <mxCell id="hzOQPEmYSjEI6YSX7xpc-8" value="\(-\ket{0}\)" style="whiteSpace=wrap;html=1;strokeWidth=0;fontSize=10;fillColor=none;strokeColor=none;fontFamily=Times New Roman;" vertex="1" parent="1">
          <mxGeometry x="233.66" y="181.0796551724138" width="16.864686468646866" height="16.86465517241379" as="geometry" />
        </mxCell>
        <mxCell id="hzOQPEmYSjEI6YSX7xpc-9" value="\(\ket{i}\)" style="whiteSpace=wrap;html=1;strokeWidth=0;fontSize=10;fillColor=none;strokeColor=none;fontFamily=Times New Roman;" vertex="1" parent="1">
          <mxGeometry x="169.9956765676568" y="181.07870689655172" width="16.864686468646866" height="16.86465517241379" as="geometry" />
        </mxCell>
        <mxCell id="hzOQPEmYSjEI6YSX7xpc-10" value="&lt;font style=&quot;font-size: 7px;&quot;&gt;\(\ket{+}\)&lt;/font&gt;" style="whiteSpace=wrap;html=1;strokeWidth=0;fontSize=10;fillColor=none;strokeColor=none;fontFamily=Times New Roman;" vertex="1" parent="1">
          <mxGeometry x="216.8" y="260.01" width="16.86" height="9.99" as="geometry" />
        </mxCell>
        <mxCell id="hzOQPEmYSjEI6YSX7xpc-11" value="" style="verticalLabelPosition=bottom;verticalAlign=top;html=1;shape=mxgraph.basic.arc;startAngle=0.001711277523331195;endAngle=0.986767661970205;dashed=1;strokeWidth=0.75;fontFamily=Times New Roman;" vertex="1" parent="1">
          <mxGeometry x="182.62930693069308" y="213.30379310344824" width="33.72937293729373" height="33.72931034482758" as="geometry" />
        </mxCell>
        <mxCell id="hzOQPEmYSjEI6YSX7xpc-12" value="&lt;font&gt;\(\frac{\pi}{4}\)&lt;/font&gt;" style="whiteSpace=wrap;html=1;strokeWidth=0;fontSize=8;fillColor=none;strokeColor=none;fontFamily=Times New Roman;" vertex="1" parent="1">
          <mxGeometry x="363.1363366336633" y="131.0768103448276" width="16.864686468646866" height="16.86465517241379" as="geometry" />
        </mxCell>
        <mxCell id="hzOQPEmYSjEI6YSX7xpc-13" value="&lt;font&gt;\(-\frac{\pi}{4}\)&lt;/font&gt;" style="whiteSpace=wrap;html=1;strokeWidth=0;fontSize=8;fillColor=none;strokeColor=none;fontFamily=Times New Roman;" vertex="1" parent="1">
          <mxGeometry x="320.00343234323435" y="119.99681034482758" width="16.864686468646866" height="16.86465517241379" as="geometry" />
        </mxCell>
        <mxCell id="hzOQPEmYSjEI6YSX7xpc-31" value="&lt;span style=&quot;text-wrap-mode: nowrap;&quot;&gt;&lt;font&gt;\(Im(\mathbb{C}^2)\)&lt;/font&gt;&lt;/span&gt;" style="whiteSpace=wrap;html=1;fillColor=none;strokeColor=none;fontFamily=Times New Roman;fontSize=9;" vertex="1" parent="1">
          <mxGeometry x="191" y="120" width="36.49" height="16.86" as="geometry" />
        </mxCell>
        <mxCell id="hzOQPEmYSjEI6YSX7xpc-32" value="\(\ket{1}\)" style="whiteSpace=wrap;html=1;strokeWidth=0;fontSize=10;fillColor=none;strokeColor=none;fontFamily=Times New Roman;" vertex="1" parent="1">
          <mxGeometry x="273.64000000000004" y="225.77000000000004" width="16.86" height="7.94" as="geometry" />
        </mxCell>
        <mxCell id="hzOQPEmYSjEI6YSX7xpc-39" value="" style="group" vertex="1" connectable="0" parent="1">
          <mxGeometry x="570" y="120" width="230.08000000000015" height="173.57" as="geometry" />
        </mxCell>
        <mxCell id="hzOQPEmYSjEI6YSX7xpc-1" value="" style="verticalLabelPosition=bottom;verticalAlign=top;html=1;shape=mxgraph.basic.arc;startAngle=0.006362805673995916;endAngle=0.9952267833287348;fontFamily=Times New Roman;" vertex="1" parent="hzOQPEmYSjEI6YSX7xpc-39">
          <mxGeometry x="80.98429042904286" y="52.14448275862068" width="101.1881188118812" height="101.18793103448274" as="geometry" />
        </mxCell>
        <mxCell id="hzOQPEmYSjEI6YSX7xpc-14" value="&lt;span style=&quot;text-wrap-mode: nowrap;&quot;&gt;&lt;font style=&quot;font-size: 9px;&quot;&gt;Projection&lt;/font&gt;&lt;/span&gt;" style="whiteSpace=wrap;html=1;fillColor=none;strokeColor=none;fontFamily=Times New Roman;" vertex="1" parent="hzOQPEmYSjEI6YSX7xpc-39">
          <mxGeometry y="79.13" width="40.76" height="16.86" as="geometry" />
        </mxCell>
        <mxCell id="hzOQPEmYSjEI6YSX7xpc-15" value="" style="endArrow=block;html=1;rounded=0;strokeWidth=2;endFill=1;fontFamily=Times New Roman;" edge="1" parent="hzOQPEmYSjEI6YSX7xpc-39">
          <mxGeometry width="50" height="50" relative="1" as="geometry">
            <mxPoint x="3.003861386138624" y="102.53607241379308" as="sourcePoint" />
            <mxPoint x="50.389999999999986" y="102.94" as="targetPoint" />
          </mxGeometry>
        </mxCell>
        <mxCell id="hzOQPEmYSjEI6YSX7xpc-16" value="" style="endArrow=none;startArrow=none;html=1;rounded=0;startFill=0;fillColor=#d5e8d4;strokeColor=#82b366;fontFamily=Times New Roman;strokeWidth=1;" edge="1" parent="hzOQPEmYSjEI6YSX7xpc-39">
          <mxGeometry width="50" height="50" relative="1" as="geometry">
            <mxPoint x="199.03709570957096" y="102.73844827586205" as="sourcePoint" />
            <mxPoint x="64.11960396039603" y="102.73844827586205" as="targetPoint" />
          </mxGeometry>
        </mxCell>
        <mxCell id="hzOQPEmYSjEI6YSX7xpc-17" value="" style="endArrow=none;startArrow=none;html=1;rounded=0;startFill=0;fontFamily=Times New Roman;strokeWidth=1;" edge="1" parent="hzOQPEmYSjEI6YSX7xpc-39">
          <mxGeometry width="50" height="50" relative="1" as="geometry">
            <mxPoint x="131.57834983498356" y="170.1970689655172" as="sourcePoint" />
            <mxPoint x="131.57834983498356" y="32.94" as="targetPoint" />
          </mxGeometry>
        </mxCell>
        <mxCell id="hzOQPEmYSjEI6YSX7xpc-18" value="\(\ket{0}\)" style="whiteSpace=wrap;html=1;strokeWidth=0;fontSize=11;fillColor=none;strokeColor=none;fontFamily=Times New Roman;" vertex="1" parent="hzOQPEmYSjEI6YSX7xpc-39">
          <mxGeometry x="136.48099009901" y="33.8475" width="16.864686468646866" height="16.86465517241379" as="geometry" />
        </mxCell>
        <mxCell id="hzOQPEmYSjEI6YSX7xpc-19" value="" style="ellipse;whiteSpace=wrap;html=1;aspect=fixed;fontFamily=Times New Roman;" vertex="1" parent="hzOQPEmYSjEI6YSX7xpc-39">
          <mxGeometry x="129.04864686468648" y="49.61478448275861" width="5.059396551724138" height="5.059396551724138" as="geometry" />
        </mxCell>
        <mxCell id="hzOQPEmYSjEI6YSX7xpc-20" value="\(-\ket{0}\)" style="whiteSpace=wrap;html=1;strokeWidth=0;fontSize=11;fillColor=none;strokeColor=none;fontFamily=Times New Roman;" vertex="1" parent="hzOQPEmYSjEI6YSX7xpc-39">
          <mxGeometry x="106.75161716171624" y="33.8475" width="16.864686468646866" height="16.86465517241379" as="geometry" />
        </mxCell>
        <mxCell id="hzOQPEmYSjEI6YSX7xpc-21" value="\(\ket{i}\)" style="whiteSpace=wrap;html=1;strokeWidth=0;fontSize=11;fillColor=none;strokeColor=none;fontColor=#82B366;fontFamily=Times New Roman;" vertex="1" parent="hzOQPEmYSjEI6YSX7xpc-39">
          <mxGeometry x="187.86" y="83.13" width="10.14" height="16.86" as="geometry" />
        </mxCell>
        <mxCell id="hzOQPEmYSjEI6YSX7xpc-22" value="\(\ket{-i}\)" style="whiteSpace=wrap;html=1;strokeWidth=0;fontSize=11;fontStyle=0;fillColor=none;strokeColor=none;fontColor=#82B366;fontFamily=Times New Roman;" vertex="1" parent="hzOQPEmYSjEI6YSX7xpc-39">
          <mxGeometry x="59" y="84.81" width="17" height="16.86" as="geometry" />
        </mxCell>
        <mxCell id="hzOQPEmYSjEI6YSX7xpc-23" value="" style="ellipse;whiteSpace=wrap;html=1;aspect=fixed;fontFamily=Times New Roman;" vertex="1" parent="hzOQPEmYSjEI6YSX7xpc-39">
          <mxGeometry x="129.04864686468648" y="150.80271551724132" width="5.059396551724138" height="5.059396551724138" as="geometry" />
        </mxCell>
        <mxCell id="hzOQPEmYSjEI6YSX7xpc-24" value="\(-\ket{1}\)" style="whiteSpace=wrap;html=1;strokeWidth=0;fontSize=11;fillColor=none;strokeColor=none;fontFamily=Times New Roman;" vertex="1" parent="hzOQPEmYSjEI6YSX7xpc-39">
          <mxGeometry x="105.43808580858092" y="156.7053448275862" width="16.864686468646866" height="16.86465517241379" as="geometry" />
        </mxCell>
        <mxCell id="hzOQPEmYSjEI6YSX7xpc-25" value="\(\ket{1}\)" style="whiteSpace=wrap;html=1;strokeWidth=0;fontSize=11;fillColor=none;strokeColor=none;fontFamily=Times New Roman;" vertex="1" parent="hzOQPEmYSjEI6YSX7xpc-39">
          <mxGeometry x="139.16745874587457" y="156.7053448275862" width="16.864686468646866" height="16.86465517241379" as="geometry" />
        </mxCell>
        <mxCell id="hzOQPEmYSjEI6YSX7xpc-26" value="&lt;font&gt;\(z\)-axis&lt;/font&gt;" style="whiteSpace=wrap;html=1;strokeWidth=0;fontSize=8;fillColor=none;strokeColor=none;fontFamily=Times New Roman;" vertex="1" parent="hzOQPEmYSjEI6YSX7xpc-39">
          <mxGeometry x="120.83000000000004" y="21.090000000000003" width="21.5" height="7.79" as="geometry" />
        </mxCell>
        <mxCell id="hzOQPEmYSjEI6YSX7xpc-27" value="&lt;font&gt;\(y\)-axis&lt;/font&gt;" style="whiteSpace=wrap;html=1;strokeWidth=0;fontSize=8;fillColor=none;strokeColor=none;fontFamily=Times New Roman;" vertex="1" parent="hzOQPEmYSjEI6YSX7xpc-39">
          <mxGeometry x="186.2318151815183" y="102.73844827586205" width="43.84818481848185" height="16.86465517241379" as="geometry" />
        </mxCell>
        <mxCell id="hzOQPEmYSjEI6YSX7xpc-28" value="" style="ellipse;whiteSpace=wrap;html=1;aspect=fixed;fillColor=#d5e8d4;strokeColor=#82b366;fontFamily=Times New Roman;" vertex="1" parent="hzOQPEmYSjEI6YSX7xpc-39">
          <mxGeometry x="78.45458745874589" y="100.20874999999998" width="5.059396551724138" height="5.059396551724138" as="geometry" />
        </mxCell>
        <mxCell id="hzOQPEmYSjEI6YSX7xpc-29" value="" style="ellipse;whiteSpace=wrap;html=1;aspect=fixed;fillColor=#d5e8d4;strokeColor=#82b366;fontFamily=Times New Roman;" vertex="1" parent="hzOQPEmYSjEI6YSX7xpc-39">
          <mxGeometry x="179.64270627062717" y="100.20874999999998" width="5.059396551724138" height="5.059396551724138" as="geometry" />
        </mxCell>
        <mxCell id="hzOQPEmYSjEI6YSX7xpc-30" value="&lt;font&gt;&lt;font&gt;&lt;span style=&quot;text-wrap-mode: nowrap;&quot;&gt;\(Im(\mathbb{C})\mathbb{P}\)&lt;/span&gt;&lt;/font&gt;&lt;/font&gt;" style="whiteSpace=wrap;html=1;fillColor=none;strokeColor=none;fontFamily=Times New Roman;fontSize=9;" vertex="1" parent="hzOQPEmYSjEI6YSX7xpc-39">
          <mxGeometry x="114" width="39.16" height="16.86" as="geometry" />
        </mxCell>
        <mxCell id="hzOQPEmYSjEI6YSX7xpc-33" value="\((0)\)" style="whiteSpace=wrap;html=1;strokeWidth=0;fontSize=10;fillColor=none;strokeColor=none;fontFamily=Times New Roman;" vertex="1" parent="hzOQPEmYSjEI6YSX7xpc-39">
          <mxGeometry x="131.05099009901005" y="55.67750000000001" width="16.864686468646866" height="16.86465517241379" as="geometry" />
        </mxCell>
        <mxCell id="hzOQPEmYSjEI6YSX7xpc-34" value="\((\frac{\pi}{4})\)" style="whiteSpace=wrap;html=1;strokeWidth=0;fontSize=9;fillColor=none;strokeColor=none;fontFamily=Times New Roman;" vertex="1" parent="hzOQPEmYSjEI6YSX7xpc-39">
          <mxGeometry x="155.03099009901018" y="84.80749999999998" width="16.864686468646866" height="16.86465517241379" as="geometry" />
        </mxCell>
        <mxCell id="hzOQPEmYSjEI6YSX7xpc-35" value="\((\pi)\)" style="whiteSpace=wrap;html=1;strokeWidth=0;fontSize=9;fillColor=none;strokeColor=none;fontFamily=Times New Roman;" vertex="1" parent="hzOQPEmYSjEI6YSX7xpc-39">
          <mxGeometry x="114.19099009901015" y="55.67749999999998" width="16.864686468646866" height="16.86465517241379" as="geometry" />
        </mxCell>
        <mxCell id="hzOQPEmYSjEI6YSX7xpc-36" value="\(-(\frac{\pi}{4})\)" style="whiteSpace=wrap;html=1;strokeWidth=0;fontSize=9;fillColor=none;strokeColor=none;fontFamily=Times New Roman;" vertex="1" parent="hzOQPEmYSjEI6YSX7xpc-39">
          <mxGeometry x="92.5109900990102" y="83.87749999999997" width="16.864686468646866" height="16.86465517241379" as="geometry" />
        </mxCell>
        <mxCell id="hzOQPEmYSjEI6YSX7xpc-37" value="\((\frac{\pi}{2})\)" style="whiteSpace=wrap;html=1;strokeWidth=0;fontSize=9;fillColor=none;strokeColor=none;fontFamily=Times New Roman;" vertex="1" parent="hzOQPEmYSjEI6YSX7xpc-39">
          <mxGeometry x="135.11099009901022" y="128.93749999999994" width="16.864686468646866" height="16.86465517241379" as="geometry" />
        </mxCell>
        <mxCell id="hzOQPEmYSjEI6YSX7xpc-38" value="\(-(\frac{\pi}{2})\)" style="whiteSpace=wrap;html=1;strokeWidth=0;fontSize=9;fillColor=none;strokeColor=none;fontFamily=Times New Roman;" vertex="1" parent="hzOQPEmYSjEI6YSX7xpc-39">
          <mxGeometry x="110.18099009901027" y="128.93749999999994" width="16.864686468646866" height="16.86465517241379" as="geometry" />
        </mxCell>
        <mxCell id="hzOQPEmYSjEI6YSX7xpc-40" value="\(\ket{1}\)" style="whiteSpace=wrap;html=1;strokeWidth=0;fontSize=10;fillColor=none;strokeColor=none;fontFamily=Times New Roman;" vertex="1" parent="1">
          <mxGeometry x="363.14000000000004" y="190.00000000000003" width="16.86" height="7.94" as="geometry" />
        </mxCell>
        <mxCell id="hzOQPEmYSjEI6YSX7xpc-41" value="\(i\ket{1}\)" style="whiteSpace=wrap;html=1;strokeWidth=0;fontSize=10;fillColor=none;strokeColor=none;fontFamily=Times New Roman;" vertex="1" parent="1">
          <mxGeometry x="191.50000000000006" y="147.94000000000005" width="16.86" height="7.94" as="geometry" />
        </mxCell>
        <mxCell id="hzOQPEmYSjEI6YSX7xpc-42" value="\(-i\ket{1}\)" style="whiteSpace=wrap;html=1;strokeWidth=0;fontSize=10;fillColor=none;strokeColor=none;fontFamily=Times New Roman;" vertex="1" parent="1">
          <mxGeometry x="191.50000000000006" y="293.57000000000005" width="16.86" height="7.94" as="geometry" />
        </mxCell>
        <mxCell id="hzOQPEmYSjEI6YSX7xpc-43" value="\(-\ket{1}\)" style="whiteSpace=wrap;html=1;strokeWidth=0;fontSize=10;fillColor=none;strokeColor=none;fontFamily=Times New Roman;" vertex="1" parent="1">
          <mxGeometry x="120.00000000000006" y="225.77000000000004" width="16.86" height="7.94" as="geometry" />
        </mxCell>
        <mxCell id="hzOQPEmYSjEI6YSX7xpc-44" value="" style="endArrow=classic;startArrow=classic;html=1;rounded=0;fontFamily=Times New Roman;" edge="1" parent="1">
          <mxGeometry width="50" height="50" relative="1" as="geometry">
            <mxPoint x="159.5" y="270.06" as="sourcePoint" />
            <mxPoint x="230" y="200" as="targetPoint" />
          </mxGeometry>
        </mxCell>
        <mxCell id="hzOQPEmYSjEI6YSX7xpc-2" value="" style="endArrow=classicThin;startArrow=none;html=1;rounded=0;startFill=0;endFill=1;fillColor=#d5e8d4;strokeColor=#82b366;fontFamily=Times New Roman;" edge="1" parent="1">
          <mxGeometry width="50" height="50" relative="1" as="geometry">
            <mxPoint x="200" y="230" as="sourcePoint" />
            <mxPoint x="180" y="200" as="targetPoint" />
          </mxGeometry>
        </mxCell>
        <mxCell id="hzOQPEmYSjEI6YSX7xpc-45" value="" style="endArrow=classic;startArrow=classic;html=1;rounded=0;fontFamily=Times New Roman;" edge="1" parent="1">
          <mxGeometry width="50" height="50" relative="1" as="geometry">
            <mxPoint x="400" y="320" as="sourcePoint" />
            <mxPoint x="400" y="200" as="targetPoint" />
          </mxGeometry>
        </mxCell>
        <mxCell id="hzOQPEmYSjEI6YSX7xpc-46" value="" style="endArrow=classic;startArrow=classic;html=1;rounded=0;fontFamily=Times New Roman;" edge="1" parent="1">
          <mxGeometry width="50" height="50" relative="1" as="geometry">
            <mxPoint x="336.87" y="260.07" as="sourcePoint" />
            <mxPoint x="467.87" y="260.01" as="targetPoint" />
          </mxGeometry>
        </mxCell>
        <mxCell id="hzOQPEmYSjEI6YSX7xpc-47" value="&lt;font style=&quot;font-size: 7px;&quot;&gt;\(\ket{+}\)&lt;/font&gt;" style="whiteSpace=wrap;html=1;strokeWidth=0;fontSize=10;fillColor=none;strokeColor=none;fontFamily=Times New Roman;" vertex="1" parent="1">
          <mxGeometry x="390" y="187.95" width="16.86" height="9.99" as="geometry" />
        </mxCell>
        <mxCell id="hzOQPEmYSjEI6YSX7xpc-48" value="&lt;font style=&quot;font-size: 7px;&quot;&gt;\(\ket{+}\)&lt;/font&gt;" style="whiteSpace=wrap;html=1;strokeWidth=0;fontSize=10;fillColor=none;strokeColor=none;fontFamily=Times New Roman;" vertex="1" parent="1">
          <mxGeometry x="470" y="250.01999999999998" width="16.86" height="9.99" as="geometry" />
        </mxCell>
        <mxCell id="hzOQPEmYSjEI6YSX7xpc-49" value="" style="endArrow=none;startArrow=classicThin;html=1;rounded=0;startFill=1;endFill=1;fillColor=#d5e8d4;strokeColor=#82b366;fontFamily=Times New Roman;" edge="1" parent="1">
          <mxGeometry width="50" height="50" relative="1" as="geometry">
            <mxPoint x="160" y="250" as="sourcePoint" />
            <mxPoint x="200" y="230" as="targetPoint" />
          </mxGeometry>
        </mxCell>
        <mxCell id="hzOQPEmYSjEI6YSX7xpc-50" value="&lt;font style=&quot;font-size: 7px;&quot;&gt;\(\ket{-}\)&lt;/font&gt;" style="whiteSpace=wrap;html=1;strokeWidth=0;fontSize=10;fillColor=none;strokeColor=none;fontFamily=Times New Roman;" vertex="1" parent="1">
          <mxGeometry x="142.86" y="245.03" width="16.86" height="9.99" as="geometry" />
        </mxCell>
      </root>
    </mxGraphModel>
  </diagram>
</mxfile>
